<svg id="svg880" xmlns="http://www.w3.org/2000/svg" xmlns:xlink="http://www.w3.org/1999/xlink" viewBox="0 0 424.45 469.04"><defs><style>.cls-1{fill:#5868a3;}.cls-2{fill:#8799cb;}.cls-3{fill:url(#Sfumatura_senza_nome);}.cls-4{fill:url(#Sfumatura_senza_nome_2);}.cls-5{fill:#fff;}</style><linearGradient id="Sfumatura_senza_nome" x1="32.61" y1="1112.43" x2="456.25" y2="1112.43" gradientTransform="matrix(1, 0, 0, -1, 0, 1371.47)" gradientUnits="userSpaceOnUse"><stop offset="0" stop-color="#5868a3"/><stop offset="1" stop-color="#5868a3" stop-opacity="0"/></linearGradient><linearGradient id="Sfumatura_senza_nome_2" x1="59.07" y1="1198.09" x2="737.01" y2="987.51" gradientTransform="matrix(1, 0, 0, -1, 0, 1371.47)" gradientUnits="userSpaceOnUse"><stop offset="0" stop-color="#5868a3"/><stop offset="1" stop-color="#8799cb"/></linearGradient></defs><title>pug-sondrio</title><g id="g1726"><g id="g1673"><path id="path890" class="cls-1" d="M70,448.07,244.5,493.6,419,445.22,457,25H33Z" transform="translate(-32.52 -24.56)"/><path id="path892" class="cls-2" d="M238.81,57.26H411.45L383,408.23,239.76,450.92Z" transform="translate(-32.52 -24.56)"/><path id="path1380" class="cls-3" d="M233,490.4c-5.48-1.47-22.34-5.89-37.47-9.84l-53.12-13.85-47.9-12.45c-12.26-3.17-22.83-5.93-23.48-6.14s-1.19-1.34-1.2-2.53c0-2-.9-12.19-3.77-43.43-1.55-16.75-4.6-50.85-6.17-68.77-.78-8.87-2.27-25.73-3.32-37.47s-2.77-31.38-3.82-43.64S50,220.82,48.94,209.6s-2.53-28.08-3.33-37.47-2.29-25.82-3.29-36.52-2.29-25-2.87-31.78S38,88.3,37.54,84.39s-1.06-13.31-1.29-20.87-.84-14.83-1.34-16.15S33.67,40.47,33.3,35l-.69-10L244.18,25c116.36,0,211.74.3,212,.56s.08,4.09-.31,8.52-1.2,14.9-1.79,23.24-1.46,18-1.95,21.35c-1.1,7.67-2.79,25.51-3.36,35.57-.23,4.17-1.07,14.84-1.86,23.71-4.28,48.14-5.36,60.2-6.67,74.46-.79,8.61-1.57,18.43-1.74,21.82s-1.19,14.92-2.29,25.61c-2.4,23.43-4.72,49.38-5.5,61.66-.31,5-1,11.79-1.5,15.18s-1.31,12.35-1.77,19.92-1.48,18.87-2.25,25.13-1.68,15.44-2,20.4a100.42,100.42,0,0,1-1.53,12.59c-.5,2-.71,3.9-.47,4.3.74,1.19-1.82,24.8-2.78,25.65-.5.43-9,3-18.92,5.77s-19.94,5.55-22.29,6.26-20.06,5.61-39.37,10.91-48,13.22-63.88,17.61-29.28,7.93-29.88,7.89-5.58-1.28-11.05-2.74Zm80.62-61.23c37.82-11.25,69-20.76,69.32-21.13.49-.59,28.54-345.42,28.43-349.5,0-1.57-4.8-1.66-86.36-1.66H238.66v87c0,47.87.28,136.61.63,197.2l.63,110.17,2.45-.82c1.35-.45,33.4-10,71.22-21.29Z" transform="translate(-32.52 -24.56)"/><path id="path1390" class="cls-4" d="M240.08,492.3l-15.65-4.07c-54.11-14.15-131.65-34.4-141.81-37L70.29,448l-.6-4.2c-.33-2.31-.89-8.46-1.23-13.67s-1-12.68-1.49-16.59-1.12-10.53-1.44-14.7-1.39-16.34-2.38-27-2.44-26.91-3.25-36c-3-33.61-5.27-59.84-7.15-81.58C51.69,241.92,50,222.93,49,212s-2.52-27.82-3.36-37.47-2.34-26.3-3.34-37S40.23,114.86,39.91,111,38.74,98.28,38,91.5s-1.53-18.74-1.77-26.57-.92-15.47-1.49-17-1.31-7.38-1.63-13.06l-.6-10.33,211.6.27c116.38.15,211.79.49,212,.75s.09,4.1-.3,8.53-1.2,14.9-1.79,23.24-1.46,18-1.95,21.35c-1.23,8.68-2.79,25.42-3.34,36-.26,5-.68,10.51-.93,12.33s-.9,8.87-1.43,15.65c-.88,11.33-2.37,28-6.19,69.72-.79,8.61-1.57,18.43-1.74,21.82s-1.19,14.92-2.29,25.61c-2.34,22.77-4.66,48.92-5.47,61.66-.32,5-1,11.79-1.52,15.18s-1.32,12.35-1.78,19.92-1.47,18.87-2.23,25.13-1.65,15-2,19.45-.85,9.77-1.17,11.86-.66,5.29-.75,7.11c-.56,11.76-1.84,22.92-2.75,24s-19.06,6.54-49.92,14.85c-5.48,1.47-35.43,9.76-66.56,18.42s-57.18,15.7-57.87,15.64a33.23,33.23,0,0,1-4.1-.82Zm73.49-63.1c37.81-11.28,69-20.92,69.32-21.43s1.06-7.42,1.66-15.36S391.42,307,398.47,220.2s12.83-159,12.83-160.54V56.88h-173L239,226c.35,93,.63,181.62.64,197v27.86l2.6-.53c1.44-.3,33.55-9.76,71.36-21Z" transform="translate(-32.52 -24.56)"/></g><g id="g1650"><path id="path1595" class="cls-5" d="M134.08,326.68c16.32-12.75,1.53-43.84,1.53-43.84C106.05,207.4,157.2,169.39,166,164.44c17.8-10.09,60.16-20,81.54,7.17,6,7.67,4,17.21,1.25,23.87-7.17,17.14-26.43,32.56-42.94,34.36-4.7.53-8.13-.55-10.45-3.26C188,218,191.86,195.39,194,187.41a4.07,4.07,0,0,0-2.89-5,4,4,0,0,0-1.84,0,4,4,0,0,0-3.15,2.91c-.89,3.36-8.41,33.24,3.06,46.59,2.53,2.94,7,6.22,14.5,6.22a29.45,29.45,0,0,0,3-.17c19.47-2.13,41.25-19.4,49.57-39.33a40,40,0,0,0,3.26-14.44c46.69,0,100,26,103.47,72.86a3.29,3.29,0,0,1-6.06,2c-2.87-4.5-6.44-9.38-10-12.45a46.4,46.4,0,0,1-6.62,20.85,82.93,82.93,0,0,0-11.89,42.7l-.07,27.74c-.4,3.4-8.43,6.12-18.35,6.12s-17.95-2.72-18.35-6.12l-.07-18a17,17,0,0,0-5.44-12.46c-3.46-3.22-8.1-4.51-12.83-4.51H264a17.27,17.27,0,0,0-12.12,5.22,17,17,0,0,0-5,12.08l-.07,17.67c-.4,3.4-8.43,6.12-18.35,6.12s-18-2.72-18.35-6.12L210,322.34c0-46.16-33.83-66.76-37.85-69.21C152.24,241,161.1,277.74,161.1,277.74c13.25,41.29-17.33,60.15-17.33,60.15l-.14-.16c-.09.1-.12.26-.23.34-2,1.48-5.53.06-8-3.17-2.24-3-2.65-6.35-1.2-8Z" transform="translate(-32.52 -24.56)"/></g></g><path class="cls-5" d="M97.22,50c0-3.08.49-4.63,1.48-4.63h70.76c1,0,1.57,1.55,1.57,4.63s-.52,4.62-1.57,4.62H98.7Q97.21,54.64,97.22,50Zm0,12.3c0-3.08.49-4.63,1.48-4.63h21.55c1,0,1.57,1.55,1.57,4.63s-.52,4.62-1.57,4.62H98.7Q97.21,66.94,97.22,62.32Zm0,12.3Q97.22,70,98.7,70h21.55q1.57,0,1.57,4.62t-1.57,4.63H98.7Q97.21,79.25,97.22,74.62Zm0,12.3q0-4.62,1.48-4.62h21.55q1.57,0,1.57,4.62t-1.57,4.63H98.7Q97.21,91.55,97.22,86.92Zm0,12.31q0-4.64,1.48-4.63h70.76q1.57,0,1.57,4.63t-1.57,4.62H98.7Q97.21,103.85,97.22,99.23Zm0,12.3c0-3.08.49-4.63,1.48-4.63h21.55c1,0,1.57,1.55,1.57,4.63s-.52,4.62-1.57,4.62H98.7Q97.21,116.15,97.22,111.53Zm0,12.3q0-4.62,1.48-4.62h21.55q1.57,0,1.57,4.62t-1.57,4.63H98.7Q97.21,128.46,97.22,123.83Zm61.51-61.51c0-3.08.49-4.63,1.48-4.63h21.55c1.05,0,1.57,1.55,1.57,4.63s-.52,4.62-1.57,4.62H160.21Q158.73,66.94,158.73,62.32Zm0,12.3q0-4.62,1.48-4.62h21.55q1.58,0,1.57,4.62t-1.57,4.63H160.21Q158.73,79.25,158.73,74.62Zm0,12.3q0-4.62,1.48-4.62h21.55q1.58,0,1.57,4.62t-1.57,4.63H160.21Q158.73,91.55,158.73,86.92Z" transform="translate(-32.52 -24.56)"/><path class="cls-5" d="M195.64,50c0-3.08.49-4.63,1.48-4.63h21.55c1.05,0,1.57,1.55,1.57,4.63s-.52,4.62-1.57,4.62H197.12Q195.64,54.64,195.64,50Zm0,12.3c0-3.08.49-4.63,1.48-4.63h21.55c1.05,0,1.57,1.55,1.57,4.63s-.52,4.62-1.57,4.62H197.12Q195.64,66.94,195.64,62.32Zm0,12.3q0-4.62,1.48-4.62h21.55q1.58,0,1.57,4.62t-1.57,4.63H197.12Q195.64,79.25,195.64,74.62Zm0,12.3q0-4.62,1.48-4.62h21.55q1.58,0,1.57,4.62t-1.57,4.63H197.12Q195.64,91.55,195.64,86.92Zm0,12.31q0-4.64,1.48-4.63h21.55q1.58,0,1.57,4.63t-1.57,4.62H197.12Q195.64,103.85,195.64,99.23Zm0,12.3c0-3.08.49-4.63,1.48-4.63h21.55c1.05,0,1.57,1.55,1.57,4.63s-.52,4.62-1.57,4.62H197.12Q195.64,116.15,195.64,111.53Zm12.3,12.3q0-4.62,1.48-4.62h58.46c1,0,1.57,1.54,1.57,4.62s-.53,4.63-1.57,4.63H209.42Q207.94,128.46,207.94,123.83ZM257.15,50c0-3.08.49-4.63,1.48-4.63h21.55c1.05,0,1.57,1.55,1.57,4.63s-.52,4.62-1.57,4.62H258.63Q257.15,54.64,257.15,50Zm0,12.3c0-3.08.49-4.63,1.48-4.63h21.55c1.05,0,1.57,1.55,1.57,4.63s-.52,4.62-1.57,4.62H258.63Q257.15,66.94,257.15,62.32Zm0,12.3q0-4.62,1.48-4.62h21.55q1.57,0,1.57,4.62t-1.57,4.63H258.63Q257.15,79.25,257.15,74.62Zm0,12.3q0-4.62,1.48-4.62h21.55q1.57,0,1.57,4.62t-1.57,4.63H258.63Q257.15,91.55,257.15,86.92Zm0,12.31q0-4.64,1.48-4.63h21.55q1.57,0,1.57,4.63t-1.57,4.62H258.63Q257.15,103.85,257.15,99.23Zm0,12.3c0-3.08.49-4.63,1.48-4.63h21.55c1.05,0,1.57,1.55,1.57,4.63s-.52,4.62-1.57,4.62H258.63Q257.15,116.15,257.15,111.53Z" transform="translate(-32.52 -24.56)"/><path class="cls-5" d="M294.05,74.62c0-3.08.5-4.62,1.48-4.62h21.55q1.57,0,1.58,4.62t-1.58,4.63H295.53C294.55,79.25,294.05,77.71,294.05,74.62Zm0,12.3c0-3.08.5-4.62,1.48-4.62h21.55q1.57,0,1.58,4.62t-1.58,4.63H295.53C294.55,91.55,294.05,90,294.05,86.92Zm0,12.31c0-3.09.5-4.63,1.48-4.63h21.55q1.57,0,1.58,4.63t-1.58,4.62H295.53C294.55,103.85,294.05,102.31,294.05,99.23Zm12.3-36.91c0-3.08.5-4.63,1.48-4.63h21.56c1,0,1.57,1.55,1.57,4.63s-.53,4.62-1.57,4.62H307.83C306.85,66.94,306.35,65.4,306.35,62.32Zm0,49.21c0-3.08.5-4.63,1.48-4.63h21.56c1,0,1.57,1.55,1.57,4.63s-.53,4.62-1.57,4.62H307.83C306.85,116.15,306.35,114.61,306.35,111.53ZM318.66,50c0-3.08.49-4.63,1.48-4.63H378.6c1,0,1.57,1.55,1.57,4.63s-.53,4.62-1.57,4.62H320.14Q318.65,54.64,318.66,50Zm0,73.81q0-4.62,1.48-4.62H378.6c1,0,1.57,1.54,1.57,4.62s-.53,4.63-1.57,4.63H320.14Q318.65,128.46,318.66,123.83Zm24.6-36.91q0-4.62,1.48-4.62H378.6c1,0,1.57,1.54,1.57,4.62s-.53,4.63-1.57,4.63H344.74Q343.26,91.55,343.26,86.92Zm12.3,12.31c0-3.09.5-4.63,1.48-4.63H378.6c1,0,1.57,1.54,1.57,4.63s-.53,4.62-1.57,4.62H357C356.06,103.85,355.56,102.31,355.56,99.23Zm0,12.3c0-3.08.5-4.63,1.48-4.63H378.6c1,0,1.57,1.55,1.57,4.63s-.53,4.62-1.57,4.62H357C356.06,116.15,355.56,114.61,355.56,111.53Z" transform="translate(-32.52 -24.56)"/><path class="cls-5" d="M85.73,397.17c0-1.45.23-2.18.69-2.18H96.58c.5,0,.75.73.75,2.18s-.25,2.18-.75,2.18H86.42C86,399.35,85.73,398.62,85.73,397.17Zm0,5.8c0-1.45.23-2.18.69-2.18H96.58c.5,0,.75.73.75,2.18s-.25,2.18-.75,2.18H86.42C86,405.15,85.73,404.42,85.73,403Zm0,17.4c0-1.46.23-2.18.69-2.18H96.58c.5,0,.75.72.75,2.18s-.25,2.18-.75,2.18H86.42C86,422.55,85.73,421.82,85.73,420.37Zm5.8-29c0-1.45.23-2.18.69-2.18H114c.5,0,.75.73.75,2.18s-.25,2.18-.75,2.18H92.22C91.76,393.55,91.53,392.82,91.53,391.37Zm0,17.4c0-1.45.23-2.18.69-2.18h27.56c.5,0,.75.73.75,2.18s-.25,2.18-.75,2.18H92.22C91.76,411,91.53,410.22,91.53,408.77Zm0,17.4c0-1.46.23-2.18.69-2.18h27.56c.5,0,.75.72.75,2.18s-.25,2.18-.75,2.18H92.22C91.76,428.35,91.53,427.62,91.53,426.17Zm17.4-29c0-1.45.23-2.18.69-2.18h10.16c.5,0,.75.73.75,2.18s-.25,2.18-.75,2.18H109.62C109.16,399.35,108.93,398.62,108.93,397.17Zm5.8,17.4c0-1.45.23-2.18.69-2.18h10.16c.5,0,.74.73.74,2.18s-.24,2.18-.74,2.18H115.42C115,416.75,114.73,416,114.73,414.57Zm0,5.8c0-1.46.23-2.18.69-2.18h10.16c.5,0,.74.72.74,2.18s-.24,2.18-.74,2.18H115.42C115,422.55,114.73,421.82,114.73,420.37Z" transform="translate(-32.52 -24.56)"/><path class="cls-5" d="M132.12,397.17c0-1.45.24-2.18.7-2.18H143c.5,0,.74.73.74,2.18s-.24,2.18-.74,2.18H132.82C132.36,399.35,132.12,398.62,132.12,397.17Zm0,5.8c0-1.45.24-2.18.7-2.18H143c.5,0,.74.73.74,2.18s-.24,2.18-.74,2.18H132.82C132.36,405.15,132.12,404.42,132.12,403Zm0,5.8c0-1.45.24-2.18.7-2.18H143c.5,0,.74.73.74,2.18S143.48,411,143,411H132.82C132.36,411,132.12,410.22,132.12,408.77Zm0,5.8c0-1.45.24-2.18.7-2.18H143c.5,0,.74.73.74,2.18s-.24,2.18-.74,2.18H132.82C132.36,416.75,132.12,416,132.12,414.57Zm0,5.8c0-1.46.24-2.18.7-2.18H143c.5,0,.74.72.74,2.18s-.24,2.18-.74,2.18H132.82C132.36,422.55,132.12,421.82,132.12,420.37Zm5.8-29c0-1.45.24-2.18.7-2.18h27.56c.49,0,.74.73.74,2.18s-.25,2.18-.74,2.18H138.62C138.16,393.55,137.92,392.82,137.92,391.37Zm0,34.8c0-1.46.24-2.18.7-2.18h27.56c.49,0,.74.72.74,2.18s-.25,2.18-.74,2.18H138.62C138.16,428.35,137.92,427.62,137.92,426.17Zm23.2-29c0-1.45.23-2.18.7-2.18H172c.49,0,.74.73.74,2.18s-.25,2.18-.74,2.18H161.82C161.35,399.35,161.12,398.62,161.12,397.17Zm0,5.8c0-1.45.23-2.18.7-2.18H172c.49,0,.74.73.74,2.18s-.25,2.18-.74,2.18H161.82C161.35,405.15,161.12,404.42,161.12,403Zm0,5.8c0-1.45.23-2.18.7-2.18H172c.49,0,.74.73.74,2.18S172.47,411,172,411H161.82C161.35,411,161.12,410.22,161.12,408.77Zm0,5.8c0-1.45.23-2.18.7-2.18H172c.49,0,.74.73.74,2.18s-.25,2.18-.74,2.18H161.82C161.35,416.75,161.12,416,161.12,414.57Zm0,5.8c0-1.46.23-2.18.7-2.18H172c.49,0,.74.72.74,2.18s-.25,2.18-.74,2.18H161.82C161.35,422.55,161.12,421.82,161.12,420.37Z" transform="translate(-32.52 -24.56)"/><path class="cls-5" d="M178.52,391.37c0-1.45.23-2.18.7-2.18h10.16c.49,0,.74.73.74,2.18s-.25,2.18-.74,2.18H179.22C178.75,393.55,178.52,392.82,178.52,391.37Zm0,5.8c0-1.45.23-2.18.7-2.18h16c.49,0,.74.73.74,2.18s-.25,2.18-.74,2.18h-16C178.75,399.35,178.52,398.62,178.52,397.17Zm0,5.8c0-1.45.23-2.18.7-2.18H201c.49,0,.74.73.74,2.18s-.25,2.18-.74,2.18H179.22C178.75,405.15,178.52,404.42,178.52,403Zm0,5.8c0-1.45.23-2.18.7-2.18h39.16c.49,0,.74.73.74,2.18s-.25,2.18-.74,2.18H179.22C178.75,411,178.52,410.22,178.52,408.77Zm0,5.8c0-1.45.23-2.18.7-2.18h10.16c.49,0,.74.73.74,2.18s-.25,2.18-.74,2.18H179.22C178.75,416.75,178.52,416,178.52,414.57Zm0,5.8c0-1.46.23-2.18.7-2.18h10.16c.49,0,.74.72.74,2.18s-.25,2.18-.74,2.18H179.22C178.75,422.55,178.52,421.82,178.52,420.37Zm0,5.8c0-1.46.23-2.18.7-2.18h10.16c.49,0,.74.72.74,2.18s-.25,2.18-.74,2.18H179.22C178.75,428.35,178.52,427.62,178.52,426.17Zm17.4-11.6c0-1.45.23-2.18.7-2.18h21.76c.49,0,.74.73.74,2.18s-.25,2.18-.74,2.18H196.62C196.15,416.75,195.92,416,195.92,414.57Zm5.8,5.8c0-1.46.23-2.18.7-2.18h16c.49,0,.74.72.74,2.18s-.25,2.18-.74,2.18h-16C202,422.55,201.72,421.82,201.72,420.37Zm5.8-29c0-1.45.23-2.18.7-2.18h10.16c.49,0,.74.73.74,2.18s-.25,2.18-.74,2.18H208.22C207.75,393.55,207.52,392.82,207.52,391.37Zm0,5.8c0-1.45.23-2.18.7-2.18h10.16c.49,0,.74.73.74,2.18s-.25,2.18-.74,2.18H208.22C207.75,399.35,207.52,398.62,207.52,397.17Zm0,5.8c0-1.45.23-2.18.7-2.18h10.16c.49,0,.74.73.74,2.18s-.25,2.18-.74,2.18H208.22C207.75,405.15,207.52,404.42,207.52,403Zm0,23.2c0-1.46.23-2.18.7-2.18h10.16c.49,0,.74.72.74,2.18s-.25,2.18-.74,2.18H208.22C207.75,428.35,207.52,427.62,207.52,426.17Z" transform="translate(-32.52 -24.56)"/><path class="cls-5" d="M224.92,391.37c0-1.45.23-2.18.69-2.18h27.56c.5,0,.74.73.74,2.18s-.24,2.18-.74,2.18H225.61C225.15,393.55,224.92,392.82,224.92,391.37Zm0,5.8c0-1.45.23-2.18.69-2.18h10.16c.5,0,.75.73.75,2.18s-.25,2.18-.75,2.18H225.61C225.15,399.35,224.92,398.62,224.92,397.17Zm0,5.8c0-1.45.23-2.18.69-2.18h10.16c.5,0,.75.73.75,2.18s-.25,2.18-.75,2.18H225.61C225.15,405.15,224.92,404.42,224.92,403Zm0,5.8c0-1.45.23-2.18.69-2.18h10.16c.5,0,.75.73.75,2.18s-.25,2.18-.75,2.18H225.61C225.15,411,224.92,410.22,224.92,408.77Zm0,5.8c0-1.45.23-2.18.69-2.18h10.16c.5,0,.75.73.75,2.18s-.25,2.18-.75,2.18H225.61C225.15,416.75,224.92,416,224.92,414.57Zm0,5.8c0-1.46.23-2.18.69-2.18h10.16c.5,0,.75.72.75,2.18s-.25,2.18-.75,2.18H225.61C225.15,422.55,224.92,421.82,224.92,420.37Zm0,5.8c0-1.46.23-2.18.69-2.18h27.56c.5,0,.74.72.74,2.18s-.24,2.18-.74,2.18H225.61C225.15,428.35,224.92,427.62,224.92,426.17Zm23.2-29c0-1.45.23-2.18.69-2.18H259c.5,0,.74.73.74,2.18s-.24,2.18-.74,2.18H248.81C248.35,399.35,248.12,398.62,248.12,397.17Zm0,23.2c0-1.46.23-2.18.69-2.18H259c.5,0,.74.72.74,2.18s-.24,2.18-.74,2.18H248.81C248.35,422.55,248.12,421.82,248.12,420.37Zm5.79-17.4c0-1.45.24-2.18.7-2.18h10.16c.5,0,.74.73.74,2.18s-.24,2.18-.74,2.18H254.61C254.15,405.15,253.91,404.42,253.91,403Zm0,5.8c0-1.45.24-2.18.7-2.18h10.16c.5,0,.74.73.74,2.18s-.24,2.18-.74,2.18H254.61C254.15,411,253.91,410.22,253.91,408.77Zm0,5.8c0-1.45.24-2.18.7-2.18h10.16c.5,0,.74.73.74,2.18s-.24,2.18-.74,2.18H254.61C254.15,416.75,253.91,416,253.91,414.57Z" transform="translate(-32.52 -24.56)"/><path class="cls-5" d="M271.31,391.37c0-1.45.24-2.18.7-2.18h33.36c.49,0,.74.73.74,2.18s-.25,2.18-.74,2.18H272C271.55,393.55,271.31,392.82,271.31,391.37Zm0,5.8c0-1.45.24-2.18.7-2.18h10.16c.49,0,.74.73.74,2.18s-.25,2.18-.74,2.18H272C271.55,399.35,271.31,398.62,271.31,397.17Zm0,5.8c0-1.45.24-2.18.7-2.18h10.16c.49,0,.74.73.74,2.18s-.25,2.18-.74,2.18H272C271.55,405.15,271.31,404.42,271.31,403Zm0,5.8c0-1.45.24-2.18.7-2.18h10.16c.49,0,.74.73.74,2.18s-.25,2.18-.74,2.18H272C271.55,411,271.31,410.22,271.31,408.77Zm0,5.8c0-1.45.24-2.18.7-2.18h27.56c.49,0,.74.73.74,2.18s-.25,2.18-.74,2.18H272C271.55,416.75,271.31,416,271.31,414.57Zm0,5.8c0-1.46.24-2.18.7-2.18h10.16c.49,0,.74.72.74,2.18s-.25,2.18-.74,2.18H272C271.55,422.55,271.31,421.82,271.31,420.37Zm0,5.8c0-1.46.24-2.18.7-2.18h10.16c.49,0,.74.72.74,2.18s-.25,2.18-.74,2.18H272C271.55,428.35,271.31,427.62,271.31,426.17Zm17.4-5.8c0-1.46.23-2.18.7-2.18h16c.49,0,.74.72.74,2.18s-.25,2.18-.74,2.18h-16C288.94,422.55,288.71,421.82,288.71,420.37Zm5.8-11.6c0-1.45.23-2.18.7-2.18h16c.49,0,.74.73.74,2.18s-.25,2.18-.74,2.18h-16C294.74,411,294.51,410.22,294.51,408.77Zm0,17.4c0-1.46.23-2.18.7-2.18h16c.49,0,.74.72.74,2.18s-.25,2.18-.74,2.18h-16C294.74,428.35,294.51,427.62,294.51,426.17Zm5.8-29c0-1.45.23-2.18.7-2.18h10.16c.49,0,.74.73.74,2.18s-.25,2.18-.74,2.18H301C300.54,399.35,300.31,398.62,300.31,397.17Zm0,5.8c0-1.45.23-2.18.7-2.18h10.16c.49,0,.74.73.74,2.18s-.25,2.18-.74,2.18H301C300.54,405.15,300.31,404.42,300.31,403Z" transform="translate(-32.52 -24.56)"/><path class="cls-5" d="M323.51,391.37c0-1.45.23-2.18.7-2.18h33.36c.49,0,.74.73.74,2.18s-.25,2.18-.74,2.18H324.21C323.74,393.55,323.51,392.82,323.51,391.37Zm0,34.8c0-1.46.23-2.18.7-2.18h33.36c.49,0,.74.72.74,2.18s-.25,2.18-.74,2.18H324.21C323.74,428.35,323.51,427.62,323.51,426.17Zm11.6-29c0-1.45.23-2.18.7-2.18H346c.49,0,.74.73.74,2.18s-.25,2.18-.74,2.18H335.81C335.34,399.35,335.11,398.62,335.11,397.17Zm0,5.8c0-1.45.23-2.18.7-2.18H346c.49,0,.74.73.74,2.18s-.25,2.18-.74,2.18H335.81C335.34,405.15,335.11,404.42,335.11,403Zm0,5.8c0-1.45.23-2.18.7-2.18H346c.49,0,.74.73.74,2.18S346.46,411,346,411H335.81C335.34,411,335.11,410.22,335.11,408.77Zm0,5.8c0-1.45.23-2.18.7-2.18H346c.49,0,.74.73.74,2.18s-.25,2.18-.74,2.18H335.81C335.34,416.75,335.11,416,335.11,414.57Zm0,5.8c0-1.46.23-2.18.7-2.18H346c.49,0,.74.72.74,2.18s-.25,2.18-.74,2.18H335.81C335.34,422.55,335.11,421.82,335.11,420.37Z" transform="translate(-32.52 -24.56)"/><path class="cls-5" d="M364.11,397.17c0-1.45.23-2.18.69-2.18H375c.5,0,.75.73.75,2.18s-.25,2.18-.75,2.18H364.8C364.34,399.35,364.11,398.62,364.11,397.17Zm0,5.8c0-1.45.23-2.18.69-2.18H375c.5,0,.75.73.75,2.18s-.25,2.18-.75,2.18H364.8C364.34,405.15,364.11,404.42,364.11,403Zm0,5.8c0-1.45.23-2.18.69-2.18H375c.5,0,.75.73.75,2.18S375.46,411,375,411H364.8C364.34,411,364.11,410.22,364.11,408.77Zm0,5.8c0-1.45.23-2.18.69-2.18H375c.5,0,.75.73.75,2.18s-.25,2.18-.75,2.18H364.8C364.34,416.75,364.11,416,364.11,414.57Zm0,5.8c0-1.46.23-2.18.69-2.18H375c.5,0,.75.72.75,2.18s-.25,2.18-.75,2.18H364.8C364.34,422.55,364.11,421.82,364.11,420.37Zm5.8-29c0-1.45.23-2.18.69-2.18h27.56c.5,0,.74.73.74,2.18s-.24,2.18-.74,2.18H370.6C370.14,393.55,369.91,392.82,369.91,391.37Zm0,34.8c0-1.46.23-2.18.69-2.18h27.56c.5,0,.74.72.74,2.18s-.24,2.18-.74,2.18H370.6C370.14,428.35,369.91,427.62,369.91,426.17Zm23.19-29c0-1.45.24-2.18.7-2.18H404c.5,0,.74.73.74,2.18s-.24,2.18-.74,2.18H393.8C393.34,399.35,393.1,398.62,393.1,397.17Zm0,5.8c0-1.45.24-2.18.7-2.18H404c.5,0,.74.73.74,2.18s-.24,2.18-.74,2.18H393.8C393.34,405.15,393.1,404.42,393.1,403Zm0,5.8c0-1.45.24-2.18.7-2.18H404c.5,0,.74.73.74,2.18S404.46,411,404,411H393.8C393.34,411,393.1,410.22,393.1,408.77Zm0,5.8c0-1.45.24-2.18.7-2.18H404c.5,0,.74.73.74,2.18s-.24,2.18-.74,2.18H393.8C393.34,416.75,393.1,416,393.1,414.57Zm0,5.8c0-1.46.24-2.18.7-2.18H404c.5,0,.74.72.74,2.18s-.24,2.18-.74,2.18H393.8C393.34,422.55,393.1,421.82,393.1,420.37Z" transform="translate(-32.52 -24.56)"/></svg>